<svg width="163" height="40" viewBox="0 0 163 40" fill="none" xmlns="http://www.w3.org/2000/svg">
<path d="M109.208 29.24C108.008 29.24 106.928 28.952 105.968 28.376C105.024 27.8 104.272 27.016 103.712 26.024C103.168 25.032 102.896 23.904 102.896 22.64C102.896 21.392 103.168 20.272 103.712 19.28C104.272 18.288 105.024 17.504 105.968 16.928C106.928 16.352 108.008 16.064 109.208 16.064C110.344 16.064 111.376 16.272 112.304 16.688C113.248 17.104 113.984 17.688 114.512 18.44L112.712 20.6C112.376 20.136 111.912 19.744 111.32 19.424C110.728 19.088 110.128 18.92 109.52 18.92C108.848 18.92 108.248 19.088 107.72 19.424C107.208 19.744 106.8 20.184 106.496 20.744C106.208 21.304 106.064 21.936 106.064 22.64C106.064 23.344 106.216 23.976 106.52 24.536C106.824 25.096 107.24 25.544 107.768 25.88C108.296 26.2 108.888 26.36 109.544 26.36C110.168 26.36 110.744 26.224 111.272 25.952C111.8 25.664 112.28 25.264 112.712 24.752L114.512 26.912C113.968 27.616 113.216 28.184 112.256 28.616C111.296 29.032 110.28 29.24 109.208 29.24Z" fill="#494D4B"/>
<path d="M121.472 29.24C120.416 29.24 119.464 28.952 118.616 28.376C117.768 27.8 117.088 27.016 116.576 26.024C116.08 25.032 115.832 23.904 115.832 22.64C115.832 21.344 116.08 20.208 116.576 19.232C117.088 18.24 117.776 17.464 118.64 16.904C119.52 16.344 120.512 16.064 121.616 16.064C122.512 16.064 123.296 16.248 123.968 16.616C124.64 16.968 125.176 17.432 125.576 18.008V16.328H128.84V29H125.552V27.296C125.104 27.856 124.52 28.32 123.8 28.688C123.096 29.056 122.32 29.24 121.472 29.24ZM122.36 26.384C123.336 26.384 124.128 26.04 124.736 25.352C125.344 24.664 125.648 23.76 125.648 22.64C125.648 21.52 125.344 20.616 124.736 19.928C124.128 19.24 123.336 18.896 122.36 18.896C121.4 18.896 120.616 19.24 120.008 19.928C119.416 20.616 119.12 21.52 119.12 22.64C119.12 23.76 119.416 24.664 120.008 25.352C120.616 26.04 121.4 26.384 122.36 26.384Z" fill="#494D4B"/>
<path d="M136.531 29.24C135.363 29.24 134.323 29.048 133.411 28.664C132.499 28.28 131.763 27.736 131.203 27.032L133.267 25.28C133.747 25.808 134.291 26.192 134.899 26.432C135.507 26.656 136.123 26.768 136.747 26.768C137.243 26.768 137.643 26.656 137.947 26.432C138.251 26.208 138.403 25.896 138.403 25.496C138.403 25.144 138.259 24.864 137.971 24.656C137.683 24.464 136.995 24.224 135.907 23.936C134.291 23.52 133.147 22.952 132.475 22.232C131.883 21.592 131.587 20.8 131.587 19.856C131.587 19.104 131.811 18.448 132.259 17.888C132.707 17.312 133.299 16.864 134.035 16.544C134.771 16.224 135.571 16.064 136.435 16.064C137.427 16.064 138.363 16.24 139.243 16.592C140.123 16.944 140.859 17.424 141.451 18.032L139.675 19.976C139.227 19.56 138.707 19.216 138.115 18.944C137.539 18.656 137.003 18.512 136.507 18.512C135.355 18.512 134.779 18.912 134.779 19.712C134.795 20.096 134.971 20.4 135.307 20.624C135.627 20.848 136.355 21.112 137.491 21.416C139.011 21.816 140.083 22.344 140.707 23C141.251 23.56 141.523 24.304 141.523 25.232C141.523 26 141.299 26.688 140.851 27.296C140.419 27.904 139.827 28.384 139.075 28.736C138.323 29.072 137.475 29.24 136.531 29.24Z" fill="#494D4B"/>
<path d="M145.249 28.9999V19.2799H142.849V16.3279H145.249V13.0879H148.513V16.3279H151.177V19.2799H148.513V28.9999H145.249Z" fill="#494D4B"/>
<path d="M153.376 29V16.328H156.544L156.592 18.416C157.008 17.728 157.552 17.168 158.224 16.736C158.912 16.288 159.632 16.064 160.384 16.064C160.672 16.064 160.936 16.088 161.176 16.136C161.432 16.168 161.648 16.216 161.824 16.28L160.936 19.88C160.76 19.784 160.536 19.704 160.264 19.64C159.992 19.576 159.72 19.544 159.448 19.544C158.664 19.544 158 19.816 157.456 20.36C156.928 20.888 156.664 21.56 156.664 22.376V29H153.376Z" fill="#494D4B"/>
<path d="M38.125 19.8875C38.1494 23.0541 37.3398 26.1713 35.7774 28.9258C35.575 29.2836 35.3607 29.6336 35.1344 29.9758C35.0225 30.1497 34.8772 30.2997 34.7069 30.417C34.5367 30.5344 34.3448 30.6168 34.1424 30.6594C33.94 30.702 33.7312 30.704 33.5281 30.6654C33.3249 30.6267 33.1315 30.5481 32.9589 30.434C32.7864 30.32 32.6382 30.1729 32.523 30.0012C32.4077 29.8295 32.3277 29.6366 32.2875 29.4337C32.2474 29.2309 32.2479 29.0221 32.2891 28.8194C32.3303 28.6167 32.4113 28.4243 32.5274 28.2531C34.0185 25.9896 34.8685 23.3643 34.987 20.6563C35.1054 17.9483 34.4879 15.2588 33.2001 12.8737C31.9123 10.4886 30.0022 8.49702 27.673 7.11063C25.3438 5.72424 22.6825 4.99487 19.9719 5.00004C14.7618 5.0102 10.1422 7.74535 7.45706 11.832C5.85189 14.2702 4.99772 17.1258 5.0005 20.0449C5.00327 22.964 5.86288 25.8181 7.47269 28.2531C7.70092 28.599 7.78239 29.0215 7.69917 29.4274C7.61595 29.8334 7.37486 30.1897 7.02894 30.418C6.68302 30.6462 6.2606 30.7277 5.85461 30.6444C5.44863 30.5612 5.09233 30.3201 4.8641 29.9742C3.0791 27.2654 2.05381 24.1271 1.89521 20.8869C1.73662 17.6467 2.45053 14.4234 3.96245 11.5532C5.47437 8.683 7.72889 6.27115 10.4907 4.56935C13.2526 2.86755 16.4206 1.93816 19.6641 1.87816C19.7782 1.87582 19.8914 1.87504 20.0047 1.87504C24.7949 1.86517 29.3933 3.75631 32.7905 7.13335C36.1878 10.5104 38.1063 15.0974 38.125 19.8875Z" fill="black"/>
<path d="M9.06585 22.7943L11.8978 36.8819C12.0678 37.7276 12.8911 38.2753 13.7368 38.1053C14.5825 37.9353 15.1303 37.1118 14.9603 36.2662L12.1284 22.1788C11.9584 21.3331 11.135 20.7852 10.2893 20.9552C9.4436 21.1252 8.89585 21.9486 9.06585 22.7943Z" fill="#D30404"/>
<path d="M11.8437 36.5642L11.1257 36.7087C10.0589 36.9235 8.95026 36.7226 8.02665 36.1471C7.10304 35.5716 6.4342 34.6649 6.15694 33.6126C6.13585 33.5314 6.11632 33.4501 6.09991 33.3673L5.071 28.2556C4.84803 27.146 5.07473 25.9932 5.70129 25.0507C6.32784 24.1081 7.30298 23.4529 8.41241 23.229L9.13038 23.0845L10.3898 29.3407L11.8437 36.5642Z" fill="black"/>
<path d="M11.8437 36.5642L11.1258 36.7087C10.0589 36.9235 8.95031 36.7226 8.0267 36.1471C7.10308 35.5716 6.43425 34.665 6.15698 33.6126C7.67436 32.2982 9.08939 30.8701 10.3898 29.3408L11.8437 36.5642Z" fill="black"/>
<path d="M36.1477 27.0874L35.7774 28.9257C35.575 29.2835 35.3607 29.6335 35.1344 29.9757C35.0225 30.1496 34.8772 30.2996 34.7069 30.417C34.5366 30.5343 34.3448 30.6167 34.1424 30.6593C33.94 30.7019 33.7312 30.704 33.5281 30.6653C33.3249 30.6266 33.1315 30.548 32.9589 30.434C32.7864 30.32 32.6382 30.1728 32.5229 30.0011C32.4077 29.8294 32.3277 29.6365 32.2875 29.4337C32.2474 29.2308 32.2479 29.022 32.2891 28.8193C32.3303 28.6166 32.4112 28.4242 32.5274 28.253C33.5865 26.6501 34.3258 24.8576 34.7047 22.9741C35.2927 23.4667 35.7371 24.1088 35.991 24.8326C36.245 25.5565 36.2991 26.3354 36.1477 27.0874Z" fill="black"/>
<path d="M34.2953 8.82974L32.0539 11.0711C30.6573 9.18253 28.836 7.64894 26.7371 6.59429C24.6383 5.53965 22.3208 4.99352 19.9719 5.00005C14.7617 5.0102 10.1422 7.74536 7.45703 11.832L5.18359 9.55864C6.82274 7.22941 8.98843 5.31987 11.5046 3.9853C14.0207 2.65072 16.8163 1.92878 19.6641 1.87817C19.7781 1.87583 19.8914 1.87505 20.0047 1.87505C22.7591 1.86888 25.4786 2.49226 27.9553 3.69759C30.4321 4.90293 32.6006 6.65833 34.2953 8.82974Z" fill="#32B768"/>
<path d="M27.8465 22.1635L25.0146 36.251C24.8446 37.0967 25.3923 37.9201 26.238 38.0901C27.0837 38.2601 27.9071 37.7123 28.0771 36.8666L30.909 22.7791C31.079 21.9335 30.5312 21.1101 29.6855 20.9401C28.8398 20.7701 28.0165 21.3178 27.8465 22.1635Z" fill="#D30404"/>
<path d="M34.929 28.2556L33.9001 33.3673C33.6767 34.4768 33.0217 35.4522 32.0792 36.0788C31.1367 36.7055 29.9839 36.932 28.8743 36.7087L28.1562 36.5642L28.9 32.8712L30.8695 23.0845L31.5875 23.229C32.6968 23.4532 33.672 24.1081 34.2992 25.0501C34.3856 25.18 34.4646 25.3145 34.5359 25.4532C34.9817 26.3155 35.1204 27.3039 34.929 28.2556Z" fill="black"/>
<path d="M34.929 28.2555L33.9001 33.3672C33.6767 34.4768 33.0217 35.4521 32.0792 36.0788C31.1367 36.7054 29.9839 36.932 28.8743 36.7086L28.1562 36.5641L28.9 32.8711C31.0403 30.6086 32.9299 28.1215 34.5359 25.4531C34.9817 26.3154 35.1204 27.3039 34.929 28.2555Z" fill="#030303"/>
<path d="M96.4 28.912V19.192H94V16.24H96.4V13H99.664V16.24H102.328V19.192H99.664V28.912H96.4Z" fill="#494D4B"/>
<path d="M66 29V16H72.8738C73.8369 16 74.699 16.1857 75.4602 16.5571C76.2369 16.9162 76.8505 17.4114 77.301 18.0429C77.767 18.6619 78 19.3614 78 20.1414C78 20.9462 77.767 21.6705 77.301 22.3143C76.8505 22.9457 76.2369 23.4533 75.4602 23.8371C74.699 24.2086 73.8369 24.3943 72.8738 24.3943H69.3553V29H66ZM69.332 21.9614H72.5243C73.099 21.9614 73.5806 21.7943 73.9689 21.46C74.3728 21.1133 74.5748 20.6862 74.5748 20.1786C74.5748 19.671 74.3728 19.2562 73.9689 18.9343C73.5806 18.6 73.099 18.4329 72.5243 18.4329H69.332V21.9614Z" fill="#494D4B"/>
<path d="M85.696 29.176C84.4 29.176 83.248 28.896 82.24 28.336C81.232 27.76 80.44 26.976 79.864 25.984C79.288 24.992 79 23.856 79 22.576C79 21.312 79.288 20.184 79.864 19.192C80.44 18.2 81.232 17.424 82.24 16.864C83.248 16.288 84.4 16 85.696 16C86.96 16 88.096 16.288 89.104 16.864C90.112 17.424 90.904 18.2 91.48 19.192C92.056 20.184 92.344 21.312 92.344 22.576C92.344 23.856 92.056 24.992 91.48 25.984C90.904 26.976 90.112 27.76 89.104 28.336C88.096 28.896 86.96 29.176 85.696 29.176ZM85.696 26.32C86.336 26.32 86.912 26.16 87.424 25.84C87.936 25.504 88.328 25.056 88.6 24.496C88.888 23.936 89.032 23.296 89.032 22.576C89.032 21.856 88.888 21.216 88.6 20.656C88.328 20.096 87.936 19.656 87.424 19.336C86.912 19.016 86.336 18.856 85.696 18.856C85.04 18.856 84.456 19.016 83.944 19.336C83.432 19.656 83.032 20.096 82.744 20.656C82.456 21.216 82.312 21.856 82.312 22.576C82.312 23.296 82.456 23.936 82.744 24.496C83.032 25.056 83.432 25.504 83.944 25.84C84.456 26.16 85.04 26.32 85.696 26.32Z" fill="#494D4B"/>
<path d="M56.1954 29C54.8372 29 53.6279 28.7523 52.5674 28.2568C51.507 27.7614 50.6512 27.0595 50 26.1512L52.4 23.8907C52.9581 24.572 53.5907 25.0674 54.2977 25.377C55.0047 25.6661 55.7209 25.8106 56.4465 25.8106C57.0233 25.8106 57.4884 25.6661 57.8419 25.377C58.1954 25.088 58.3721 24.6855 58.3721 24.1694C58.3721 23.7152 58.2046 23.354 57.8698 23.0856C57.5349 22.8379 56.7349 22.5282 55.4698 22.1566C53.5907 21.6199 52.2605 20.8871 51.4791 19.9581C50.7907 19.1324 50.4465 18.1105 50.4465 16.8925C50.4465 15.9223 50.707 15.0759 51.2279 14.3534C51.7488 13.6102 52.4372 13.0322 53.293 12.6193C54.1488 12.2064 55.0791 12 56.0837 12C57.2372 12 58.3256 12.2271 59.3488 12.6812C60.3721 13.1354 61.2279 13.7547 61.9163 14.5392L59.8512 17.0474C59.3302 16.5106 58.7256 16.0668 58.0372 15.7158C57.3675 15.3443 56.7442 15.1585 56.1674 15.1585C54.8279 15.1585 54.1581 15.6746 54.1581 16.7067C54.1768 17.2022 54.3814 17.5944 54.7721 17.8834C55.1442 18.1724 55.9907 18.5131 57.3116 18.9053C59.0791 19.4214 60.3256 20.1026 61.0512 20.949C61.6837 21.6715 62 22.6315 62 23.8288C62 24.8197 61.7395 25.7073 61.2186 26.4918C60.7163 27.2763 60.0279 27.8956 59.1535 28.3497C58.2791 28.7832 57.293 29 56.1954 29Z" fill="#494D4B"/>
</svg>
